<?xml version="1.0" encoding="UTF-8"?>
<svg width="196px" height="196px" viewBox="0 0 196 196" version="1.1" xmlns="http://www.w3.org/2000/svg" xmlns:xlink="http://www.w3.org/1999/xlink">
    <!-- Generator: Sketch 43.2 (39069) - http://www.bohemiancoding.com/sketch -->
    <title>Outer + C</title>
    <desc>Created with Sketch.</desc>
    <defs></defs>
    <g stroke="none" stroke-width="1" fill="none" fill-rule="evenodd">
        <g>
            <path d="M186.8125,196 L9.1875,196 C4.134375,196 0,191.865625 0,186.8125 L0,9.1875 C0,4.134375 4.134375,0 9.1875,0 L186.8125,0 C191.865625,0 196,4.134375 196,9.1875 L196,186.8125 C196,191.865625 191.865625,196 186.8125,196 L186.8125,196 Z" fill="#C66470"></path>
            <path d="M56.3005604,74.6812746 C59.1676148,67.8428231 63.0585592,61.9851671 67.9735098,57.1081319 C72.8884608,52.2310963 78.6224836,48.4938593 85.1757516,45.8963077 C91.7290191,43.2987562 98.6917616,42 106.064188,42 C111.900691,42 117.09715,42.583115 121.653719,43.7493627 C126.210288,44.9156102 130.12683,46.2408718 133.403464,47.7251869 C137.192072,49.4215468 140.468656,51.2769128 143.233316,53.2913408 L127.106215,82.7124396 C125.467898,81.4401696 123.676016,80.220929 121.730515,79.0546812 C119.989803,78.2065014 117.916339,77.3848392 115.510061,76.5896704 C113.103783,75.7945015 110.364763,75.3969231 107.292919,75.3969231 C104.11868,75.3969231 101.200472,75.980038 98.5382068,77.1462858 C95.8759417,78.3125332 93.5464951,79.9028471 91.5497963,81.9172746 C89.5530975,83.9317025 87.9916,86.2906677 86.8652571,88.9942419 C85.7389145,91.6978157 85.1757516,94.5868857 85.1757516,97.6615385 C85.1757516,100.736191 85.7645127,103.625261 86.942053,106.328835 C88.1195933,109.032409 89.7322874,111.391374 91.7801833,113.405802 C93.8280795,115.42023 96.2343213,117.010544 98.9989812,118.176791 C101.763641,119.343039 104.784242,119.926154 108.060876,119.926154 C111.33751,119.926154 114.255718,119.50207 116.815588,118.65389 C119.375459,117.80571 121.525717,116.851522 123.266429,115.791297 C125.314325,114.625049 127.106207,113.246777 128.64213,111.65644 L144.769231,141.077538 C142.004571,143.410034 138.727986,145.477441 134.939378,147.279824 C131.662745,148.764139 127.720604,150.142411 123.112838,151.414681 C118.505071,152.686952 113.231818,153.323077 107.292919,153.323077 C99.3061242,153.323077 91.9338087,151.97131 85.1757516,149.267736 C78.417694,146.564162 72.5812779,142.773914 67.6663269,137.896879 C62.7513764,133.019844 58.9116285,127.162188 56.146969,120.323736 C53.3823091,113.485285 52,105.931294 52,97.6615385 C52,89.1797376 53.4335057,81.5197265 56.3005604,74.6812746 L56.3005604,74.6812746 Z" fill="#FFFFFF"></path>
        </g>
    </g>
</svg>